<svg xmlns="http://www.w3.org/2000/svg" width="120" height="23.922" viewBox="0 0 120 23.922"><defs><style>.a{fill:#fff;}</style></defs><g transform="translate(-297.763 199.197)"><path class="a" d="M569.988-198.511H569.5a.659.659,0,0,0-.659.659v15.169a.343.343,0,0,0,.077.217l1.115,1.37a.344.344,0,0,0,.611-.217v-16.539A.659.659,0,0,0,569.988-198.511Z" transform="translate(-153.013 -0.387)"/><path class="a" d="M458.817-187.212a11.868,11.868,0,0,1,.424-3.181,11.909,11.909,0,0,1,1.2-2.859,12.135,12.135,0,0,1,1.869-2.427,11.716,11.716,0,0,1,2.427-1.876,12.321,12.321,0,0,1,2.858-1.21,11.62,11.62,0,0,1,3.189-.433,11.585,11.585,0,0,1,3.165.433,12.134,12.134,0,0,1,2.858,1.21,11.94,11.94,0,0,1,2.419,1.868,11.9,11.9,0,0,1,1.869,2.427,12.275,12.275,0,0,1,1.209,2.874,11.733,11.733,0,0,1,.432,3.189,11.561,11.561,0,0,1-.432,3.173,12.187,12.187,0,0,1-1.209,2.851,11.8,11.8,0,0,1-1.869,2.411,12.129,12.129,0,0,1-2.419,1.862,11.933,11.933,0,0,1-2.858,1.2,11.862,11.862,0,0,1-3.18.425,11.869,11.869,0,0,1-3.181-.425,11.94,11.94,0,0,1-2.859-1.2,11.976,11.976,0,0,1-2.419-1.869,11.941,11.941,0,0,1-1.869-2.419,11.934,11.934,0,0,1-1.2-2.851A11.776,11.776,0,0,1,458.817-187.212Zm1.838-.016a9.844,9.844,0,0,0,.793,3.942,10.212,10.212,0,0,0,2.168,3.212,10.182,10.182,0,0,0,3.22,2.168,9.887,9.887,0,0,0,3.95.793,9.9,9.9,0,0,0,2.686-.361,10.173,10.173,0,0,0,2.411-1.021,10.332,10.332,0,0,0,2.05-1.579,9.966,9.966,0,0,0,1.586-2.042,10.136,10.136,0,0,0,1.021-2.419,10.013,10.013,0,0,0,.361-2.693,9.718,9.718,0,0,0-.8-3.926,10.336,10.336,0,0,0-2.175-3.212,10.343,10.343,0,0,0-3.212-2.176,9.723,9.723,0,0,0-3.927-.8,9.981,9.981,0,0,0-2.694.361,10.272,10.272,0,0,0-2.426,1.02,9.9,9.9,0,0,0-2.05,1.587,10.358,10.358,0,0,0-1.579,2.05,10.1,10.1,0,0,0-1.021,2.419A9.924,9.924,0,0,0,460.655-187.228Z" transform="translate(-90.907)"/><path class="a" d="M298.935-198.511h-.608a.564.564,0,0,0-.52.783l9.346,22.212a.564.564,0,0,0,.52.345h.608a.564.564,0,0,0,.52-.783l-9.346-22.212A.564.564,0,0,0,298.935-198.511Z" transform="translate(0 -0.387)"/><path class="a" d="M357.047-198.511h.607a.564.564,0,0,1,.52.783l-9.346,22.212a.565.565,0,0,1-.52.345H347.7a.564.564,0,0,1-.52-.783l9.346-22.212A.564.564,0,0,1,357.047-198.511Z" transform="translate(-27.869 -0.387)"/><path class="a" d="M369.805-198.511H369.2a.564.564,0,0,0-.52.783l9.346,22.212a.564.564,0,0,0,.52.345h.608a.564.564,0,0,0,.52-.783l-9.346-22.212A.564.564,0,0,0,369.805-198.511Z" transform="translate(-40.003 -0.387)"/><path class="a" d="M332.763-198.511h.608a.564.564,0,0,1,.52.783l-7.1,16.54a.362.362,0,0,1-.668-.007l-.46-1.131a.362.362,0,0,1,0-.277l6.577-15.563A.564.564,0,0,1,332.763-198.511Z" transform="translate(-15.734 -0.387)"/><rect class="a" width="1.803" height="23.324" rx="0.901" transform="translate(345.763 -198.898)"/><rect class="a" width="1.803" height="23.324" rx="0.901" transform="translate(398.16 -198.898)"/><path class="a" d="M529.86-198.511h-.8a.629.629,0,0,0-.494,1.019l17.46,22.074a.608.608,0,0,0,.478.231h.848a.609.609,0,0,0,.478-.987l-17.479-22.1A.629.629,0,0,0,529.86-198.511Z" transform="translate(-130.202 -0.387)"/><path class="a" d="M418.628-184H414.81a.612.612,0,0,1-.612-.613v-.6a.612.612,0,0,1,.612-.612h3.84a5.556,5.556,0,0,0,5.607-5.057,5.434,5.434,0,0,0-5.416-5.8h-8.8v-1.83h8.8a7.266,7.266,0,0,1,7.225,7.957A7.4,7.4,0,0,1,418.628-184Z" transform="translate(-63.374 -0.387)"/><path class="a" d="M437.618-159.026l-4.182-9.359h-1.93l4.4,9.848a.6.6,0,0,0,.547.355h.618A.6.6,0,0,0,437.618-159.026Z" transform="translate(-75.492 -17.392)"/></g></svg>